<svg xmlns="http://www.w3.org/2000/svg" xmlns:xlink="http://www.w3.org/1999/xlink" viewBox="0 0 220 220"><defs><style>.cls-1,.cls-3,.cls-5{fill:#f6af58;}.cls-1,.cls-2{clip-rule:evenodd;}.cls-12,.cls-2{fill:none;}.cls-3,.cls-6{fill-rule:evenodd;}.cls-4{clip-path:url(#clip-path);}.cls-6{fill:#59afe1;}.cls-7{clip-path:url(#clip-path-2);}.cls-8{clip-path:url(#clip-path-3);}.cls-9{clip-path:url(#clip-path-4);}.cls-10{fill:#b3e5fc;stroke:#b3e5fc;}.cls-10,.cls-12,.cls-14,.cls-15,.cls-16{stroke-miterlimit:10;}.cls-11,.cls-15{fill:#d17569;}.cls-12,.cls-14{stroke:#d12f19;}.cls-13{fill:#d19a92;}.cls-14{fill:#d12f19;}.cls-15{stroke:#d17569;}.cls-16{fill:#43b7f6;stroke:#43b7f6;}.cls-17{fill:#fff;}.cls-18{font-size:20.36px;fill:#4a4a4a;font-family:OpenSans-SemiBold, Open Sans;font-weight:700;}</style><clipPath id="clip-path"><path class="cls-1" d="M5560.33-2200h.64a36.36,36.36,0,0,1,36.36,36.37,36.35,36.35,0,0,1-36.36,36.36H5433.7a36.36,36.36,0,0,1-36.37-36.36A36.37,36.37,0,0,1,5433.7-2200h.64a64.84,64.84,0,0,1-.64-9.09,63.63,63.63,0,0,1,63.63-63.63A63.63,63.63,0,0,1,5561-2209,64.84,64.84,0,0,1,5560.33-2200Z"/></clipPath><clipPath id="clip-path-2"><path class="cls-2" d="M-128.52,63q7.67-.86,8.52-8.52.85,7.67,8.52,8.52-7.67.86-8.52,8.52-.85-7.66-8.52-8.52"/></clipPath><clipPath id="clip-path-3"><path class="cls-2" d="M-58.52,87q7.67-.85,8.52-8.52.86,7.67,8.52,8.52-7.67.85-8.52,8.52-.86-7.67-8.52-8.52"/></clipPath><clipPath id="clip-path-4"><path class="cls-2" d="M-97.95,33q9.86-1.09,11-10.95,1.09,9.86,11,11Q-85.9,34.1-87,44q-1.09-9.86-11-11"/></clipPath></defs><title>snowy-bridge_1</title><g id="Layer_1" data-name="Layer 1"><path class="cls-3" d="M5560.33-2200h.64a36.36,36.36,0,0,1,36.36,36.37,36.35,36.35,0,0,1-36.36,36.36H5433.7a36.36,36.36,0,0,1-36.37-36.36A36.37,36.37,0,0,1,5433.7-2200h.64a64.84,64.84,0,0,1-.64-9.09,63.63,63.63,0,0,1,63.63-63.63A63.63,63.63,0,0,1,5561-2209,64.84,64.84,0,0,1,5560.33-2200Z"/><g class="cls-4"><rect class="cls-5" x="-2802.67" y="-6218.14" width="18181.82" height="13945.45"/></g></g><g id="Rainy_Bridge" data-name="Rainy Bridge"><path class="cls-6" d="M-367.27,96.94l.22.12a1.62,1.62,0,0,1,.63,2.2l-4.73,8.53a1.61,1.61,0,0,1-2.2.63l-.21-.12a1.62,1.62,0,0,1-.64-2.2l4.73-8.52A1.62,1.62,0,0,1-367.27,96.94Zm53.58,0,.22.12a1.62,1.62,0,0,1,.63,2.2l-4.73,8.53a1.61,1.61,0,0,1-2.2.63l-.21-.12a1.62,1.62,0,0,1-.64-2.2l4.73-8.52A1.62,1.62,0,0,1-313.69,96.94Zm-28.5,0,.22.12a1.62,1.62,0,0,1,.63,2.2l-4.73,8.53a1.61,1.61,0,0,1-2.2.63l-.21-.12a1.62,1.62,0,0,1-.64-2.2l4.73-8.52A1.62,1.62,0,0,1-342.19,96.94ZM-353,97l.07,0a1.62,1.62,0,0,1,.64,2.2l-8,14.37a1.61,1.61,0,0,1-2.2.62l-.07,0a1.62,1.62,0,0,1-.64-2.2l8-14.38A1.63,1.63,0,0,1-353,97Zm-28.5,0,.07,0a1.62,1.62,0,0,1,.64,2.2l-8,14.37a1.61,1.61,0,0,1-2.2.62l-.07,0a1.62,1.62,0,0,1-.64-2.2l8-14.38A1.63,1.63,0,0,1-381.54,97ZM-328,97l.07,0a1.62,1.62,0,0,1,.64,2.2l-8,14.37a1.61,1.61,0,0,1-2.2.62l-.07,0a1.62,1.62,0,0,1-.64-2.2l8-14.38A1.63,1.63,0,0,1-328,97Zm26.22,0,.07,0a1.62,1.62,0,0,1,.64,2.2l-8,14.37a1.61,1.61,0,0,1-2.2.62l-.07,0a1.62,1.62,0,0,1-.64-2.2l8-14.38A1.63,1.63,0,0,1-301.74,97Z"/></g><g id="Snowy_Bridge" data-name="Snowy Bridge"><circle class="cls-10" cx="110" cy="110" r="109"/><polyline class="cls-11" points="9.58 94.67 9.58 184.67 8.58 184.67 8.58 96.67"/><polyline class="cls-11" points="192.58 170.67 192.58 193.67 193.58 193.67 193.58 171.67"/><polyline class="cls-11" points="183.58 154.67 183.58 190.67 182.58 190.67 182.58 156.67"/><polyline class="cls-11" points="173.58 152.67 173.58 188.67 172.58 188.67 172.58 153.67"/><polyline class="cls-11" points="168.58 164.67 168.58 186.67 167.58 186.67 167.58 166.67"/><polyline class="cls-11" points="163.58 173.67 163.58 186.67 162.58 186.67 162.58 174.67"/><polyline class="cls-11" points="152.58 178.67 152.58 186.67 153.58 186.67 153.58 179.67"/><polyline class="cls-11" points="148.58 174.67 148.58 183.67 149.58 183.67 149.58 176.67"/><polyline class="cls-11" points="143.58 167.67 143.58 183.67 144.58 183.67 144.58 169.67"/><polyline class="cls-11" points="138.58 159.67 138.58 183.67 139.58 183.67 139.58 161.67"/><polyline class="cls-11" points="133.58 150.67 133.58 183.67 134.58 183.67 134.58 152.67"/><polyline class="cls-11" points="128.58 141.67 128.58 182.67 129.58 182.67 129.58 143.67"/><polyline class="cls-11" points="123.58 130.67 123.58 182.67 124.58 182.67 124.58 133.67"/><polyline class="cls-11" points="118.58 117.67 118.58 181.67 119.58 181.67 119.58 120.67"/><polyline class="cls-11" points="113.58 104.67 113.58 180.67 114.58 180.67 114.58 107.67"/><polyline class="cls-11" points="108.58 90.67 108.58 180.67 109.58 180.67 109.58 93.67"/><polygon class="cls-11" points="103.58 179.67 104.58 179.67 104.58 78.67 103.58 75.67 103.58 179.67"/><polygon class="cls-11" points="98.58 179.67 99.58 179.67 99.58 63.67 98.58 60.67 98.58 179.67"/><polygon class="cls-11" points="93.58 179.67 94.58 179.67 94.58 48.67 93.58 45.67 93.58 179.67"/><path class="cls-12" d="M87.83,31.12s30.06,92,42.84,115.13c13.25,24,24.33,42.25,37,35.42s18.82-37.8,20.33-46"/><polygon class="cls-11" points="54.58 179.67 53.58 179.67 53.58 41.67 54.58 40.67 54.58 179.67"/><polygon class="cls-11" points="49.58 179.67 48.58 179.67 48.58 48.67 49.58 47.67 49.58 179.67"/><polygon class="cls-11" points="44.58 179.67 43.58 179.67 43.58 55.67 44.58 54.67 44.58 179.67"/><polygon class="cls-11" points="39.58 179.67 38.58 179.67 38.58 61.67 39.58 60.67 39.58 179.67"/><polygon class="cls-11" points="34.58 179.67 33.58 179.67 33.58 67.67 34.58 66.67 34.58 179.67"/><polygon class="cls-11" points="29.58 179.67 28.58 179.67 28.58 73.67 29.58 72.67 29.58 179.67"/><polygon class="cls-11" points="24.58 179.67 23.58 179.67 23.58 79.67 24.58 78.67 24.58 179.67"/><polygon class="cls-11" points="19.58 179.67 18.58 179.67 18.58 85.67 19.58 84.67 19.58 179.67"/><polygon class="cls-11" points="14.58 179.67 13.58 179.67 13.58 90.67 14.58 89.67 14.58 179.67"/><polyline class="cls-11" points="4.58 100.67 4.58 179.67 3.58 179.67 3.58 101.67"/><polygon class="cls-13" points="69.58 179.67 68.58 179.67 68.58 61.67 69.58 58.67 69.58 179.67"/><polygon class="cls-11" points="84.58 179.67 83.58 179.67 83.58 37.67 84.58 35.67 84.58 179.67"/><polygon class="cls-11" points="79.58 179.67 78.58 179.67 78.58 45.67 79.58 43.67 79.58 179.67"/><polygon class="cls-13" points="78.58 179.67 79.58 179.67 79.58 79.67 78.58 75.67 78.58 179.67"/><polygon class="cls-11" points="74.58 179.67 73.58 179.67 73.58 53.67 74.58 51.67 74.58 179.67"/><polygon class="cls-11" points="68.58 179.67 69.58 179.67 69.58 52.67 68.58 50.67 68.58 179.67"/><polygon class="cls-13" points="98.58 179.67 99.58 179.67 99.58 125.67 98.58 121.67 98.58 179.67"/><polygon class="cls-13" points="108.58 179.67 109.58 179.67 109.58 144.67 108.58 141.67 108.58 179.67"/><polygon class="cls-13" points="118.58 180.67 119.58 180.67 119.58 161.67 118.58 158.67 118.58 180.67"/><polygon class="cls-13" points="128.58 183.67 129.58 183.67 129.58 173.67 128.58 170.67 128.58 183.67"/><polygon class="cls-13" points="159.58 186.67 158.58 186.67 158.58 179.67 159.58 177.67 159.58 186.67"/><polygon class="cls-13" points="169.58 188.67 168.58 188.67 168.58 165.67 169.58 161.67 169.58 188.67"/><path class="cls-12" d="M0,105.25c7.52-6.67,22.25-24,35.28-39.43C52.89,45,60.83,30.18,60.83,30.18s16.46,45.12,33.5,83.07c10.73,23.88,22.09,43.43,28,50.89,13.27,16.67,20.65,23.11,32.32,17.69,10.58-4.91,17.74-24.08,23.55-45.15,0,0,7.95,63.3,14.78,69.23"/><rect class="cls-14" x="177.47" y="136.45" width="1.5" height="11.23"/><path class="cls-12" d="M188.33,134.68s6.59,58.65,10.92,69.32"/><polygon class="cls-14" points="188.33 135.14 187.68 136.26 188.97 136.26 188.33 135.14"/><polygon class="cls-14" points="178.22 135.14 177.57 136.26 178.87 136.26 178.22 135.14"/><rect class="cls-15" x="178.67" y="136.45" width="9.21" height="3.74"/><rect class="cls-14" x="187.58" y="136.45" width="1.5" height="11.23"/><polygon class="cls-13" points="19.58 179.67 18.58 179.67 18.58 122.67 19.58 120.67 19.58 179.67"/><polygon class="cls-13" points="9.58 179.67 8.58 179.67 8.58 133.67 9.58 131.67 9.58 179.67"/><rect class="cls-14" x="177.1" y="147.67" width="2.25" height="11.98"/><rect class="cls-15" x="178.67" y="147.67" width="9.21" height="3.74"/><polygon class="cls-13" points="29.58 179.67 28.58 179.67 28.58 111.67 29.58 109.67 29.58 179.67"/><polygon class="cls-13" points="39.58 179.67 38.58 179.67 38.58 100.67 39.58 98.67 39.58 179.67"/><polygon class="cls-13" points="49.58 179.67 48.58 179.67 48.58 88.67 49.58 86.67 49.58 179.67"/><rect class="cls-14" x="187.2" y="147.67" width="2.25" height="11.98"/><rect class="cls-14" x="176.91" y="159.65" width="2.62" height="14.22"/><rect class="cls-15" x="178.22" y="159.65" width="10.1" height="4.49"/><rect class="cls-14" x="187.02" y="159.65" width="2.62" height="14.22"/><rect class="cls-14" x="176.91" y="173.87" width="2.62" height="17.21"/><rect class="cls-15" x="178.22" y="173.87" width="10.1" height="4.86"/><rect class="cls-14" x="187.02" y="173.87" width="2.62" height="17.21"/><rect class="cls-14" x="176.91" y="191.46" width="2.62" height="14.22"/><rect class="cls-14" x="187.02" y="191.46" width="2.62" height="14.22"/><rect class="cls-14" x="58.83" y="33.68" width="4" height="30"/><polygon class="cls-14" points="60.83 30.18 59.1 33.18 62.56 33.18 60.83 30.18"/><polygon class="cls-14" points="87.83 30.18 86.1 33.18 89.56 33.18 87.83 30.18"/><rect class="cls-15" x="60.83" y="33.68" width="27" height="10"/><rect class="cls-14" x="85.83" y="33.68" width="4" height="30"/><polygon class="cls-11" points="63.58 179.67 64.58 179.67 64.58 38.67 63.58 36.67 63.58 179.67"/><rect class="cls-14" x="57.83" y="63.68" width="6" height="32"/><rect class="cls-15" x="60.83" y="63.68" width="27" height="10"/><path class="cls-12" d="M87.83,29.83C87,31.68,65.58,67.42,48.5,88.33,35.74,104,6.79,135.93,1.67,140.18"/><rect class="cls-14" x="84.83" y="63.68" width="6" height="32"/><rect class="cls-14" x="57.33" y="95.68" width="7" height="38"/><rect class="cls-15" x="60.83" y="95.68" width="27" height="12"/><rect class="cls-14" x="84.33" y="95.68" width="7" height="38"/><rect class="cls-14" x="57.33" y="133.68" width="7" height="46"/><rect class="cls-15" x="60.83" y="133.68" width="27" height="13"/><rect class="cls-14" x="84.33" y="133.68" width="7" height="46"/><path class="cls-16" d="M19.08,186.67s145.75-6.34,173.5,7,0,22,0,22l-53,3.33L32,218.68l-12.92-30Z"/><rect class="cls-14" x="57.33" y="180.68" width="7" height="38"/><path class="cls-15" d="M3.33,178.73s165.34-5.06,198,16.94-6.58,1.71-6.58,1.71-8.95-5.23-32.08-7.63c-13.9-1.44-33-.42-58-.42-14.67,0-29.5.13-43.84.84-31.93,1.57-59.16,4.16-59.16,4.16Z"/><rect class="cls-14" x="84.33" y="172.67" width="7" height="46.01"/><path class="cls-17" d="M140.46,204.86h-12a1.53,1.53,0,1,1,0-3.06h5.92a1.52,1.52,0,0,0,1.42-1.52,1.54,1.54,0,0,0-1.42-1.53h-31a1.53,1.53,0,0,0,0,3h12a1.53,1.53,0,0,1,0,3.06h-5.92a1.53,1.53,0,0,0,0,3.06h31a1.53,1.53,0,0,0,0-3.06Z"/><circle class="cls-5" cx="158.39" cy="70.38" r="16.29"/><circle class="cls-10" cx="110" cy="110" r="109"/><path class="cls-17" d="M0,0V220H220V0ZM110,219A109,109,0,1,1,219,110,109,109,0,0,1,110,219Z"/><text class="cls-18" transform="translate(11.38 117.48) scale(1.03 1)">Oh No! You Didn’t!!!</text></g></svg>